<mxfile host="app.diagrams.net" modified="2023-04-26T23:41:50.311Z" agent="Mozilla/5.0 (Windows NT 10.0; Win64; x64) AppleWebKit/537.36 (KHTML, like Gecko) Chrome/112.0.0.0 Safari/537.36 Edg/112.0.1722.48" etag="C_5nC4lN57N5BpG8jctQ" version="21.2.3" type="device">
  <diagram id="R2lEEEUBdFMjLlhIrx00" name="Page-1">
    <mxGraphModel dx="993" dy="1681" grid="1" gridSize="10" guides="1" tooltips="1" connect="1" arrows="1" fold="1" page="1" pageScale="1" pageWidth="850" pageHeight="1100" math="0" shadow="0" extFonts="Permanent Marker^https://fonts.googleapis.com/css?family=Permanent+Marker">
      <root>
        <mxCell id="0" />
        <mxCell id="1" parent="0" />
        <mxCell id="yCBNfP9z31DlKFKU7ZgW-1" value="Camion" style="rounded=0;whiteSpace=wrap;html=1;" vertex="1" parent="1">
          <mxGeometry x="120" y="60" width="120" height="60" as="geometry" />
        </mxCell>
        <mxCell id="yCBNfP9z31DlKFKU7ZgW-2" value="Camionero" style="rounded=0;whiteSpace=wrap;html=1;" vertex="1" parent="1">
          <mxGeometry x="120" y="350" width="120" height="60" as="geometry" />
        </mxCell>
        <mxCell id="yCBNfP9z31DlKFKU7ZgW-3" value="Paquete" style="rounded=0;whiteSpace=wrap;html=1;" vertex="1" parent="1">
          <mxGeometry x="640" y="60" width="120" height="60" as="geometry" />
        </mxCell>
        <mxCell id="yCBNfP9z31DlKFKU7ZgW-4" value="Provincia" style="rounded=0;whiteSpace=wrap;html=1;" vertex="1" parent="1">
          <mxGeometry x="640" y="350" width="120" height="60" as="geometry" />
        </mxCell>
        <mxCell id="yCBNfP9z31DlKFKU7ZgW-5" value="&lt;u&gt;DNI&lt;/u&gt;" style="ellipse;whiteSpace=wrap;html=1;" vertex="1" parent="1">
          <mxGeometry x="20" y="460" width="70" height="50" as="geometry" />
        </mxCell>
        <mxCell id="yCBNfP9z31DlKFKU7ZgW-7" value="Nombre" style="ellipse;whiteSpace=wrap;html=1;" vertex="1" parent="1">
          <mxGeometry x="110" y="460" width="70" height="50" as="geometry" />
        </mxCell>
        <mxCell id="yCBNfP9z31DlKFKU7ZgW-9" value="Telefono" style="ellipse;whiteSpace=wrap;html=1;" vertex="1" parent="1">
          <mxGeometry x="200" y="460" width="70" height="50" as="geometry" />
        </mxCell>
        <mxCell id="yCBNfP9z31DlKFKU7ZgW-10" value="Direccion" style="ellipse;whiteSpace=wrap;html=1;" vertex="1" parent="1">
          <mxGeometry x="20" y="380" width="70" height="50" as="geometry" />
        </mxCell>
        <mxCell id="yCBNfP9z31DlKFKU7ZgW-11" value="Salario" style="ellipse;whiteSpace=wrap;html=1;" vertex="1" parent="1">
          <mxGeometry x="20" y="300" width="70" height="50" as="geometry" />
        </mxCell>
        <mxCell id="yCBNfP9z31DlKFKU7ZgW-12" value="Poblacion residente" style="ellipse;whiteSpace=wrap;html=1;" vertex="1" parent="1">
          <mxGeometry x="290" y="460" width="70" height="50" as="geometry" />
        </mxCell>
        <mxCell id="yCBNfP9z31DlKFKU7ZgW-14" value="&lt;u&gt;Codigo&lt;/u&gt;" style="ellipse;whiteSpace=wrap;html=1;" vertex="1" parent="1">
          <mxGeometry x="570" y="-20" width="70" height="50" as="geometry" />
        </mxCell>
        <mxCell id="yCBNfP9z31DlKFKU7ZgW-15" value="Descripcion" style="ellipse;whiteSpace=wrap;html=1;" vertex="1" parent="1">
          <mxGeometry x="660" y="-20" width="70" height="50" as="geometry" />
        </mxCell>
        <mxCell id="yCBNfP9z31DlKFKU7ZgW-16" value="Direccion destinatario" style="ellipse;whiteSpace=wrap;html=1;" vertex="1" parent="1">
          <mxGeometry x="740" y="-20" width="70" height="50" as="geometry" />
        </mxCell>
        <mxCell id="yCBNfP9z31DlKFKU7ZgW-17" value="" style="endArrow=none;html=1;rounded=0;" edge="1" parent="1" source="yCBNfP9z31DlKFKU7ZgW-2" target="yCBNfP9z31DlKFKU7ZgW-11">
          <mxGeometry width="50" height="50" relative="1" as="geometry">
            <mxPoint x="400" y="310" as="sourcePoint" />
            <mxPoint x="450" y="260" as="targetPoint" />
          </mxGeometry>
        </mxCell>
        <mxCell id="yCBNfP9z31DlKFKU7ZgW-18" value="" style="endArrow=none;html=1;rounded=0;" edge="1" parent="1" source="yCBNfP9z31DlKFKU7ZgW-2" target="yCBNfP9z31DlKFKU7ZgW-10">
          <mxGeometry width="50" height="50" relative="1" as="geometry">
            <mxPoint x="400" y="310" as="sourcePoint" />
            <mxPoint x="450" y="260" as="targetPoint" />
          </mxGeometry>
        </mxCell>
        <mxCell id="yCBNfP9z31DlKFKU7ZgW-19" value="" style="endArrow=none;html=1;rounded=0;" edge="1" parent="1" source="yCBNfP9z31DlKFKU7ZgW-2" target="yCBNfP9z31DlKFKU7ZgW-5">
          <mxGeometry width="50" height="50" relative="1" as="geometry">
            <mxPoint x="400" y="310" as="sourcePoint" />
            <mxPoint x="450" y="260" as="targetPoint" />
          </mxGeometry>
        </mxCell>
        <mxCell id="yCBNfP9z31DlKFKU7ZgW-20" value="" style="endArrow=none;html=1;rounded=0;" edge="1" parent="1" source="yCBNfP9z31DlKFKU7ZgW-2" target="yCBNfP9z31DlKFKU7ZgW-7">
          <mxGeometry width="50" height="50" relative="1" as="geometry">
            <mxPoint x="400" y="310" as="sourcePoint" />
            <mxPoint x="450" y="260" as="targetPoint" />
          </mxGeometry>
        </mxCell>
        <mxCell id="yCBNfP9z31DlKFKU7ZgW-21" value="" style="endArrow=none;html=1;rounded=0;" edge="1" parent="1" source="yCBNfP9z31DlKFKU7ZgW-2" target="yCBNfP9z31DlKFKU7ZgW-9">
          <mxGeometry width="50" height="50" relative="1" as="geometry">
            <mxPoint x="400" y="310" as="sourcePoint" />
            <mxPoint x="450" y="260" as="targetPoint" />
          </mxGeometry>
        </mxCell>
        <mxCell id="yCBNfP9z31DlKFKU7ZgW-22" value="" style="endArrow=none;html=1;rounded=0;exitX=1;exitY=0.25;exitDx=0;exitDy=0;" edge="1" parent="1" source="yCBNfP9z31DlKFKU7ZgW-2" target="yCBNfP9z31DlKFKU7ZgW-12">
          <mxGeometry width="50" height="50" relative="1" as="geometry">
            <mxPoint x="400" y="310" as="sourcePoint" />
            <mxPoint x="450" y="260" as="targetPoint" />
          </mxGeometry>
        </mxCell>
        <mxCell id="yCBNfP9z31DlKFKU7ZgW-23" value="" style="endArrow=none;html=1;rounded=0;" edge="1" parent="1" source="yCBNfP9z31DlKFKU7ZgW-14" target="yCBNfP9z31DlKFKU7ZgW-3">
          <mxGeometry width="50" height="50" relative="1" as="geometry">
            <mxPoint x="400" y="310" as="sourcePoint" />
            <mxPoint x="450" y="260" as="targetPoint" />
          </mxGeometry>
        </mxCell>
        <mxCell id="yCBNfP9z31DlKFKU7ZgW-24" value="" style="endArrow=none;html=1;rounded=0;" edge="1" parent="1" source="yCBNfP9z31DlKFKU7ZgW-15" target="yCBNfP9z31DlKFKU7ZgW-3">
          <mxGeometry width="50" height="50" relative="1" as="geometry">
            <mxPoint x="400" y="310" as="sourcePoint" />
            <mxPoint x="450" y="260" as="targetPoint" />
          </mxGeometry>
        </mxCell>
        <mxCell id="yCBNfP9z31DlKFKU7ZgW-25" value="" style="endArrow=none;html=1;rounded=0;" edge="1" parent="1" source="yCBNfP9z31DlKFKU7ZgW-16" target="yCBNfP9z31DlKFKU7ZgW-3">
          <mxGeometry width="50" height="50" relative="1" as="geometry">
            <mxPoint x="400" y="310" as="sourcePoint" />
            <mxPoint x="450" y="260" as="targetPoint" />
          </mxGeometry>
        </mxCell>
        <mxCell id="yCBNfP9z31DlKFKU7ZgW-26" value="Distribucion" style="rhombus;whiteSpace=wrap;html=1;" vertex="1" parent="1">
          <mxGeometry x="385" y="200" width="80" height="80" as="geometry" />
        </mxCell>
        <mxCell id="yCBNfP9z31DlKFKU7ZgW-28" value="Conducir" style="rhombus;whiteSpace=wrap;html=1;" vertex="1" parent="1">
          <mxGeometry x="140" y="200" width="80" height="80" as="geometry" />
        </mxCell>
        <mxCell id="yCBNfP9z31DlKFKU7ZgW-29" value="" style="endArrow=none;html=1;rounded=0;exitX=0.5;exitY=0;exitDx=0;exitDy=0;" edge="1" parent="1" source="yCBNfP9z31DlKFKU7ZgW-2" target="yCBNfP9z31DlKFKU7ZgW-28">
          <mxGeometry width="50" height="50" relative="1" as="geometry">
            <mxPoint x="400" y="310" as="sourcePoint" />
            <mxPoint x="450" y="260" as="targetPoint" />
          </mxGeometry>
        </mxCell>
        <mxCell id="yCBNfP9z31DlKFKU7ZgW-30" value="" style="endArrow=none;html=1;rounded=0;exitX=0.5;exitY=0;exitDx=0;exitDy=0;" edge="1" parent="1" source="yCBNfP9z31DlKFKU7ZgW-28" target="yCBNfP9z31DlKFKU7ZgW-1">
          <mxGeometry width="50" height="50" relative="1" as="geometry">
            <mxPoint x="400" y="310" as="sourcePoint" />
            <mxPoint x="450" y="260" as="targetPoint" />
          </mxGeometry>
        </mxCell>
        <mxCell id="yCBNfP9z31DlKFKU7ZgW-31" value="1:N" style="text;html=1;align=center;verticalAlign=middle;resizable=0;points=[];autosize=1;strokeColor=none;fillColor=none;" vertex="1" parent="1">
          <mxGeometry x="140" y="150" width="40" height="30" as="geometry" />
        </mxCell>
        <mxCell id="yCBNfP9z31DlKFKU7ZgW-32" value="1:N" style="text;html=1;align=center;verticalAlign=middle;resizable=0;points=[];autosize=1;strokeColor=none;fillColor=none;" vertex="1" parent="1">
          <mxGeometry x="140" y="300" width="40" height="30" as="geometry" />
        </mxCell>
        <mxCell id="yCBNfP9z31DlKFKU7ZgW-34" value="&lt;u&gt;Codigo de provincia&lt;/u&gt;" style="ellipse;whiteSpace=wrap;html=1;" vertex="1" parent="1">
          <mxGeometry x="600" y="440" width="70" height="50" as="geometry" />
        </mxCell>
        <mxCell id="yCBNfP9z31DlKFKU7ZgW-35" value="Nombre" style="ellipse;whiteSpace=wrap;html=1;" vertex="1" parent="1">
          <mxGeometry x="700" y="440" width="70" height="50" as="geometry" />
        </mxCell>
        <mxCell id="yCBNfP9z31DlKFKU7ZgW-36" value="" style="endArrow=none;html=1;rounded=0;" edge="1" parent="1" source="yCBNfP9z31DlKFKU7ZgW-34" target="yCBNfP9z31DlKFKU7ZgW-4">
          <mxGeometry width="50" height="50" relative="1" as="geometry">
            <mxPoint x="400" y="320" as="sourcePoint" />
            <mxPoint x="450" y="270" as="targetPoint" />
          </mxGeometry>
        </mxCell>
        <mxCell id="yCBNfP9z31DlKFKU7ZgW-37" value="" style="endArrow=none;html=1;rounded=0;" edge="1" parent="1" source="yCBNfP9z31DlKFKU7ZgW-35" target="yCBNfP9z31DlKFKU7ZgW-4">
          <mxGeometry width="50" height="50" relative="1" as="geometry">
            <mxPoint x="400" y="320" as="sourcePoint" />
            <mxPoint x="450" y="270" as="targetPoint" />
          </mxGeometry>
        </mxCell>
        <mxCell id="yCBNfP9z31DlKFKU7ZgW-38" value="Recepcion de paquetes" style="rhombus;whiteSpace=wrap;html=1;" vertex="1" parent="1">
          <mxGeometry x="660" y="180" width="80" height="80" as="geometry" />
        </mxCell>
        <mxCell id="yCBNfP9z31DlKFKU7ZgW-39" value="" style="endArrow=none;html=1;rounded=0;exitX=0.5;exitY=0;exitDx=0;exitDy=0;" edge="1" parent="1" source="yCBNfP9z31DlKFKU7ZgW-38" target="yCBNfP9z31DlKFKU7ZgW-3">
          <mxGeometry width="50" height="50" relative="1" as="geometry">
            <mxPoint x="400" y="310" as="sourcePoint" />
            <mxPoint x="450" y="260" as="targetPoint" />
          </mxGeometry>
        </mxCell>
        <mxCell id="yCBNfP9z31DlKFKU7ZgW-40" value="" style="endArrow=none;html=1;rounded=0;entryX=0.5;entryY=1;entryDx=0;entryDy=0;exitX=0.5;exitY=0;exitDx=0;exitDy=0;" edge="1" parent="1" source="yCBNfP9z31DlKFKU7ZgW-4" target="yCBNfP9z31DlKFKU7ZgW-38">
          <mxGeometry width="50" height="50" relative="1" as="geometry">
            <mxPoint x="400" y="310" as="sourcePoint" />
            <mxPoint x="450" y="260" as="targetPoint" />
          </mxGeometry>
        </mxCell>
        <mxCell id="yCBNfP9z31DlKFKU7ZgW-41" value="1:1" style="text;html=1;align=center;verticalAlign=middle;resizable=0;points=[];autosize=1;strokeColor=none;fillColor=none;" vertex="1" parent="1">
          <mxGeometry x="700" y="138" width="40" height="30" as="geometry" />
        </mxCell>
        <mxCell id="yCBNfP9z31DlKFKU7ZgW-42" value="1:N" style="text;html=1;align=center;verticalAlign=middle;resizable=0;points=[];autosize=1;strokeColor=none;fillColor=none;" vertex="1" parent="1">
          <mxGeometry x="700" y="288" width="40" height="30" as="geometry" />
        </mxCell>
        <mxCell id="yCBNfP9z31DlKFKU7ZgW-43" value="1:N" style="text;html=1;align=center;verticalAlign=middle;resizable=0;points=[];autosize=1;strokeColor=none;fillColor=none;" vertex="1" parent="1">
          <mxGeometry x="745" y="205" width="40" height="30" as="geometry" />
        </mxCell>
        <mxCell id="yCBNfP9z31DlKFKU7ZgW-44" value="" style="endArrow=none;html=1;rounded=0;" edge="1" parent="1" source="yCBNfP9z31DlKFKU7ZgW-2" target="yCBNfP9z31DlKFKU7ZgW-26">
          <mxGeometry width="50" height="50" relative="1" as="geometry">
            <mxPoint x="400" y="310" as="sourcePoint" />
            <mxPoint x="450" y="260" as="targetPoint" />
          </mxGeometry>
        </mxCell>
        <mxCell id="yCBNfP9z31DlKFKU7ZgW-45" value="" style="endArrow=none;html=1;rounded=0;" edge="1" parent="1" source="yCBNfP9z31DlKFKU7ZgW-26" target="yCBNfP9z31DlKFKU7ZgW-3">
          <mxGeometry width="50" height="50" relative="1" as="geometry">
            <mxPoint x="400" y="310" as="sourcePoint" />
            <mxPoint x="450" y="260" as="targetPoint" />
          </mxGeometry>
        </mxCell>
        <mxCell id="yCBNfP9z31DlKFKU7ZgW-46" value="1:N" style="text;html=1;align=center;verticalAlign=middle;resizable=0;points=[];autosize=1;strokeColor=none;fillColor=none;" vertex="1" parent="1">
          <mxGeometry x="290" y="268" width="40" height="30" as="geometry" />
        </mxCell>
        <mxCell id="yCBNfP9z31DlKFKU7ZgW-47" value="1:1" style="text;html=1;align=center;verticalAlign=middle;resizable=0;points=[];autosize=1;strokeColor=none;fillColor=none;" vertex="1" parent="1">
          <mxGeometry x="510" y="148" width="40" height="30" as="geometry" />
        </mxCell>
        <mxCell id="yCBNfP9z31DlKFKU7ZgW-49" value="&lt;u&gt;Matricula&lt;/u&gt;" style="ellipse;whiteSpace=wrap;html=1;" vertex="1" parent="1">
          <mxGeometry x="50" width="70" height="50" as="geometry" />
        </mxCell>
        <mxCell id="yCBNfP9z31DlKFKU7ZgW-50" value="" style="endArrow=none;html=1;rounded=0;" edge="1" parent="1" source="yCBNfP9z31DlKFKU7ZgW-1" target="yCBNfP9z31DlKFKU7ZgW-53">
          <mxGeometry width="50" height="50" relative="1" as="geometry">
            <mxPoint x="400" y="300" as="sourcePoint" />
            <mxPoint x="450" y="250" as="targetPoint" />
          </mxGeometry>
        </mxCell>
        <mxCell id="yCBNfP9z31DlKFKU7ZgW-51" value="" style="endArrow=none;html=1;rounded=0;" edge="1" parent="1" source="yCBNfP9z31DlKFKU7ZgW-49" target="yCBNfP9z31DlKFKU7ZgW-1">
          <mxGeometry width="50" height="50" relative="1" as="geometry">
            <mxPoint x="400" y="300" as="sourcePoint" />
            <mxPoint x="450" y="250" as="targetPoint" />
          </mxGeometry>
        </mxCell>
        <mxCell id="yCBNfP9z31DlKFKU7ZgW-53" value="Modelo" style="ellipse;whiteSpace=wrap;html=1;" vertex="1" parent="1">
          <mxGeometry x="140" y="-10" width="70" height="50" as="geometry" />
        </mxCell>
        <mxCell id="yCBNfP9z31DlKFKU7ZgW-54" value="Tipo" style="ellipse;whiteSpace=wrap;html=1;" vertex="1" parent="1">
          <mxGeometry x="230" y="-10" width="70" height="50" as="geometry" />
        </mxCell>
        <mxCell id="yCBNfP9z31DlKFKU7ZgW-55" value="" style="endArrow=none;html=1;rounded=0;" edge="1" parent="1" source="yCBNfP9z31DlKFKU7ZgW-1" target="yCBNfP9z31DlKFKU7ZgW-54">
          <mxGeometry width="50" height="50" relative="1" as="geometry">
            <mxPoint x="400" y="300" as="sourcePoint" />
            <mxPoint x="450" y="250" as="targetPoint" />
          </mxGeometry>
        </mxCell>
        <mxCell id="yCBNfP9z31DlKFKU7ZgW-56" value="Potencia" style="ellipse;whiteSpace=wrap;html=1;" vertex="1" parent="1">
          <mxGeometry x="275" y="60" width="70" height="50" as="geometry" />
        </mxCell>
        <mxCell id="yCBNfP9z31DlKFKU7ZgW-57" value="" style="endArrow=none;html=1;rounded=0;" edge="1" parent="1" source="yCBNfP9z31DlKFKU7ZgW-1" target="yCBNfP9z31DlKFKU7ZgW-56">
          <mxGeometry width="50" height="50" relative="1" as="geometry">
            <mxPoint x="400" y="150" as="sourcePoint" />
            <mxPoint x="450" y="100" as="targetPoint" />
          </mxGeometry>
        </mxCell>
      </root>
    </mxGraphModel>
  </diagram>
</mxfile>
